# xmcd
# 
# Track frame offsets:
#     150
#     21862
#     62260
#     103975
#     133910
#     161535
#     191615
#     221020
#     252900
# 
# Disc length: 3668
# 
# Revision: 1
# Processed by: cddbd v1.5.2PL0 Copyright (c) Steve Scherf et al.
# Submitted via: fre:ac v1.0.31
# 
DISCID=7f0e5209
DTITLE=The Trio (小曽根真,James Genus,ClarencePenn) - 新世界
DYEAR=2004
DGENRE=Jazz
TTITLE0=組曲「夜の子供部屋」 a. 第1楽章
TTITLE1=組曲「夜の子供部屋」 b. 第2楽章
TTITLE2=組曲「夜の子供部屋」 c. 第3楽章
TTITLE3=Bolero
TTITLE4=Uno! Uno!
TTITLE5=Spring
TTITLE6=Caminos De Abrojos
TTITLE7=Forgotten Dream
TTITLE8=Cat Patrol
EXTD=YEAR: 2004
EXTT0=
EXTT1=
EXTT2=
EXTT3=
EXTT4=
EXTT5=
EXTT6=
EXTT7=
EXTT8=
PLAYORDER=
